<mxfile host="app.diagrams.net" agent="Mozilla/5.0 (Windows NT 10.0; Win64; x64) AppleWebKit/537.36 (KHTML, like Gecko) Chrome/131.0.0.0 Safari/537.36" version="26.0.6">
  <diagram id="C5RBs43oDa-KdzZeNtuy" name="Page-1">
    <mxGraphModel dx="833" dy="2186" grid="1" gridSize="10" guides="1" tooltips="1" connect="1" arrows="1" fold="1" page="1" pageScale="1" pageWidth="827" pageHeight="1169" math="0" shadow="0">
      <root>
        <mxCell id="WIyWlLk6GJQsqaUBKTNV-0" />
        <mxCell id="WIyWlLk6GJQsqaUBKTNV-1" parent="WIyWlLk6GJQsqaUBKTNV-0" />
        <mxCell id="VaKeFJSu2Lxb5giRbWRH-19" style="edgeStyle=orthogonalEdgeStyle;rounded=0;orthogonalLoop=1;jettySize=auto;html=1;entryX=0.5;entryY=0;entryDx=0;entryDy=0;" edge="1" parent="WIyWlLk6GJQsqaUBKTNV-1" source="WIyWlLk6GJQsqaUBKTNV-3" target="VaKeFJSu2Lxb5giRbWRH-6">
          <mxGeometry relative="1" as="geometry" />
        </mxCell>
        <mxCell id="WIyWlLk6GJQsqaUBKTNV-3" value="Init LevelManager" style="rounded=1;whiteSpace=wrap;html=1;fontSize=12;glass=0;strokeWidth=1;shadow=0;" parent="WIyWlLk6GJQsqaUBKTNV-1" vertex="1">
          <mxGeometry x="40" y="200" width="120" height="40" as="geometry" />
        </mxCell>
        <mxCell id="VaKeFJSu2Lxb5giRbWRH-33" style="edgeStyle=orthogonalEdgeStyle;rounded=0;orthogonalLoop=1;jettySize=auto;html=1;entryX=0.5;entryY=0;entryDx=0;entryDy=0;" edge="1" parent="WIyWlLk6GJQsqaUBKTNV-1" source="VaKeFJSu2Lxb5giRbWRH-0" target="VaKeFJSu2Lxb5giRbWRH-32">
          <mxGeometry relative="1" as="geometry" />
        </mxCell>
        <mxCell id="VaKeFJSu2Lxb5giRbWRH-0" value="Init PlayerState" style="rounded=1;whiteSpace=wrap;html=1;fontSize=12;glass=0;strokeWidth=1;shadow=0;" vertex="1" parent="WIyWlLk6GJQsqaUBKTNV-1">
          <mxGeometry x="450" y="620" width="120" height="40" as="geometry" />
        </mxCell>
        <mxCell id="VaKeFJSu2Lxb5giRbWRH-26" style="edgeStyle=orthogonalEdgeStyle;rounded=0;orthogonalLoop=1;jettySize=auto;html=1;entryX=0;entryY=0.5;entryDx=0;entryDy=0;" edge="1" parent="WIyWlLk6GJQsqaUBKTNV-1" source="VaKeFJSu2Lxb5giRbWRH-1" target="VaKeFJSu2Lxb5giRbWRH-9">
          <mxGeometry relative="1" as="geometry" />
        </mxCell>
        <mxCell id="VaKeFJSu2Lxb5giRbWRH-1" value="Player&lt;div&gt;Controller&lt;/div&gt;" style="ellipse;whiteSpace=wrap;html=1;aspect=fixed;" vertex="1" parent="WIyWlLk6GJQsqaUBKTNV-1">
          <mxGeometry x="230" y="190" width="60" height="60" as="geometry" />
        </mxCell>
        <mxCell id="VaKeFJSu2Lxb5giRbWRH-71" style="edgeStyle=orthogonalEdgeStyle;rounded=0;orthogonalLoop=1;jettySize=auto;html=1;entryX=0.5;entryY=0;entryDx=0;entryDy=0;" edge="1" parent="WIyWlLk6GJQsqaUBKTNV-1" source="VaKeFJSu2Lxb5giRbWRH-6" target="VaKeFJSu2Lxb5giRbWRH-70">
          <mxGeometry relative="1" as="geometry" />
        </mxCell>
        <mxCell id="VaKeFJSu2Lxb5giRbWRH-6" value="Init PlayerController" style="rounded=1;whiteSpace=wrap;html=1;fontSize=12;glass=0;strokeWidth=1;shadow=0;" vertex="1" parent="WIyWlLk6GJQsqaUBKTNV-1">
          <mxGeometry x="40" y="280" width="120" height="40" as="geometry" />
        </mxCell>
        <mxCell id="VaKeFJSu2Lxb5giRbWRH-9" value="Player&lt;span style=&quot;background-color: transparent; color: light-dark(rgb(0, 0, 0), rgb(255, 255, 255));&quot;&gt;HUD&lt;/span&gt;" style="ellipse;whiteSpace=wrap;html=1;aspect=fixed;" vertex="1" parent="WIyWlLk6GJQsqaUBKTNV-1">
          <mxGeometry x="385" y="190" width="60" height="60" as="geometry" />
        </mxCell>
        <mxCell id="VaKeFJSu2Lxb5giRbWRH-11" value="has a" style="text;html=1;align=center;verticalAlign=middle;resizable=0;points=[];autosize=1;strokeColor=none;fillColor=none;" vertex="1" parent="WIyWlLk6GJQsqaUBKTNV-1">
          <mxGeometry x="310" y="190" width="50" height="30" as="geometry" />
        </mxCell>
        <mxCell id="VaKeFJSu2Lxb5giRbWRH-13" style="edgeStyle=orthogonalEdgeStyle;rounded=0;orthogonalLoop=1;jettySize=auto;html=1;entryX=0.5;entryY=0;entryDx=0;entryDy=0;" edge="1" parent="WIyWlLk6GJQsqaUBKTNV-1" source="VaKeFJSu2Lxb5giRbWRH-12" target="WIyWlLk6GJQsqaUBKTNV-3">
          <mxGeometry relative="1" as="geometry" />
        </mxCell>
        <mxCell id="VaKeFJSu2Lxb5giRbWRH-12" value="Init GameMode" style="rounded=1;whiteSpace=wrap;html=1;fontSize=12;glass=0;strokeWidth=1;shadow=0;" vertex="1" parent="WIyWlLk6GJQsqaUBKTNV-1">
          <mxGeometry x="40" y="120" width="120" height="40" as="geometry" />
        </mxCell>
        <mxCell id="VaKeFJSu2Lxb5giRbWRH-17" style="edgeStyle=orthogonalEdgeStyle;rounded=0;orthogonalLoop=1;jettySize=auto;html=1;entryX=0;entryY=0.5;entryDx=0;entryDy=0;" edge="1" parent="WIyWlLk6GJQsqaUBKTNV-1" source="VaKeFJSu2Lxb5giRbWRH-14" target="VaKeFJSu2Lxb5giRbWRH-15">
          <mxGeometry relative="1" as="geometry" />
        </mxCell>
        <mxCell id="VaKeFJSu2Lxb5giRbWRH-14" value="GameMode" style="ellipse;whiteSpace=wrap;html=1;aspect=fixed;" vertex="1" parent="WIyWlLk6GJQsqaUBKTNV-1">
          <mxGeometry x="480" y="280" width="60" height="60" as="geometry" />
        </mxCell>
        <mxCell id="VaKeFJSu2Lxb5giRbWRH-18" style="edgeStyle=orthogonalEdgeStyle;rounded=0;orthogonalLoop=1;jettySize=auto;html=1;entryX=0;entryY=0.5;entryDx=0;entryDy=0;" edge="1" parent="WIyWlLk6GJQsqaUBKTNV-1" source="VaKeFJSu2Lxb5giRbWRH-15" target="VaKeFJSu2Lxb5giRbWRH-16">
          <mxGeometry relative="1" as="geometry" />
        </mxCell>
        <mxCell id="VaKeFJSu2Lxb5giRbWRH-15" value="Level&lt;div&gt;Manager&lt;/div&gt;" style="ellipse;whiteSpace=wrap;html=1;aspect=fixed;" vertex="1" parent="WIyWlLk6GJQsqaUBKTNV-1">
          <mxGeometry x="620" y="280" width="60" height="60" as="geometry" />
        </mxCell>
        <mxCell id="VaKeFJSu2Lxb5giRbWRH-16" value="Level" style="ellipse;whiteSpace=wrap;html=1;aspect=fixed;" vertex="1" parent="WIyWlLk6GJQsqaUBKTNV-1">
          <mxGeometry x="750" y="280" width="60" height="60" as="geometry" />
        </mxCell>
        <mxCell id="VaKeFJSu2Lxb5giRbWRH-25" style="edgeStyle=orthogonalEdgeStyle;rounded=0;orthogonalLoop=1;jettySize=auto;html=1;entryX=0.5;entryY=0;entryDx=0;entryDy=0;" edge="1" parent="WIyWlLk6GJQsqaUBKTNV-1" source="VaKeFJSu2Lxb5giRbWRH-20" target="VaKeFJSu2Lxb5giRbWRH-0">
          <mxGeometry relative="1" as="geometry" />
        </mxCell>
        <mxCell id="VaKeFJSu2Lxb5giRbWRH-20" value="Init PlayerCharacter" style="rounded=1;whiteSpace=wrap;html=1;fontSize=12;glass=0;strokeWidth=1;shadow=0;" vertex="1" parent="WIyWlLk6GJQsqaUBKTNV-1">
          <mxGeometry x="450" y="540" width="120" height="40" as="geometry" />
        </mxCell>
        <mxCell id="VaKeFJSu2Lxb5giRbWRH-22" style="edgeStyle=orthogonalEdgeStyle;rounded=0;orthogonalLoop=1;jettySize=auto;html=1;entryX=0.5;entryY=0;entryDx=0;entryDy=0;" edge="1" parent="WIyWlLk6GJQsqaUBKTNV-1" source="VaKeFJSu2Lxb5giRbWRH-21" target="VaKeFJSu2Lxb5giRbWRH-12">
          <mxGeometry relative="1" as="geometry" />
        </mxCell>
        <mxCell id="VaKeFJSu2Lxb5giRbWRH-21" value="Enter Game" style="rounded=1;whiteSpace=wrap;html=1;fontSize=12;glass=0;strokeWidth=1;shadow=0;" vertex="1" parent="WIyWlLk6GJQsqaUBKTNV-1">
          <mxGeometry x="40" y="40" width="120" height="40" as="geometry" />
        </mxCell>
        <mxCell id="VaKeFJSu2Lxb5giRbWRH-24" style="edgeStyle=orthogonalEdgeStyle;rounded=0;orthogonalLoop=1;jettySize=auto;html=1;entryX=0.5;entryY=0;entryDx=0;entryDy=0;" edge="1" parent="WIyWlLk6GJQsqaUBKTNV-1" source="VaKeFJSu2Lxb5giRbWRH-23" target="VaKeFJSu2Lxb5giRbWRH-20">
          <mxGeometry relative="1" as="geometry" />
        </mxCell>
        <mxCell id="VaKeFJSu2Lxb5giRbWRH-23" value="Enter Level" style="rounded=1;whiteSpace=wrap;html=1;fontSize=12;glass=0;strokeWidth=1;shadow=0;" vertex="1" parent="WIyWlLk6GJQsqaUBKTNV-1">
          <mxGeometry x="450" y="460" width="120" height="40" as="geometry" />
        </mxCell>
        <mxCell id="VaKeFJSu2Lxb5giRbWRH-29" value="has a" style="text;html=1;align=center;verticalAlign=middle;resizable=0;points=[];autosize=1;strokeColor=none;fillColor=none;" vertex="1" parent="WIyWlLk6GJQsqaUBKTNV-1">
          <mxGeometry x="550" y="280" width="50" height="30" as="geometry" />
        </mxCell>
        <mxCell id="VaKeFJSu2Lxb5giRbWRH-30" value="has" style="text;html=1;align=center;verticalAlign=middle;resizable=0;points=[];autosize=1;strokeColor=none;fillColor=none;" vertex="1" parent="WIyWlLk6GJQsqaUBKTNV-1">
          <mxGeometry x="695" y="280" width="40" height="30" as="geometry" />
        </mxCell>
        <mxCell id="VaKeFJSu2Lxb5giRbWRH-51" style="edgeStyle=orthogonalEdgeStyle;rounded=0;orthogonalLoop=1;jettySize=auto;html=1;entryX=0.5;entryY=0;entryDx=0;entryDy=0;" edge="1" parent="WIyWlLk6GJQsqaUBKTNV-1" source="VaKeFJSu2Lxb5giRbWRH-32" target="VaKeFJSu2Lxb5giRbWRH-49">
          <mxGeometry relative="1" as="geometry" />
        </mxCell>
        <mxCell id="VaKeFJSu2Lxb5giRbWRH-32" value="Pick Cards And Store Into PlayerState" style="rounded=1;whiteSpace=wrap;html=1;fontSize=12;glass=0;strokeWidth=1;shadow=0;" vertex="1" parent="WIyWlLk6GJQsqaUBKTNV-1">
          <mxGeometry x="450" y="700" width="120" height="40" as="geometry" />
        </mxCell>
        <mxCell id="VaKeFJSu2Lxb5giRbWRH-44" value="Enter Game&amp;nbsp;" style="text;html=1;align=center;verticalAlign=middle;resizable=0;points=[];autosize=1;strokeColor=none;fillColor=none;" vertex="1" parent="WIyWlLk6GJQsqaUBKTNV-1">
          <mxGeometry x="105" y="10" width="90" height="30" as="geometry" />
        </mxCell>
        <mxCell id="VaKeFJSu2Lxb5giRbWRH-45" value="Level Prepare&amp;nbsp;" style="text;html=1;align=center;verticalAlign=middle;resizable=0;points=[];autosize=1;strokeColor=none;fillColor=none;" vertex="1" parent="WIyWlLk6GJQsqaUBKTNV-1">
          <mxGeometry x="505" y="430" width="100" height="30" as="geometry" />
        </mxCell>
        <mxCell id="VaKeFJSu2Lxb5giRbWRH-46" style="edgeStyle=orthogonalEdgeStyle;rounded=0;orthogonalLoop=1;jettySize=auto;html=1;entryX=0.5;entryY=0;entryDx=0;entryDy=0;" edge="1" parent="WIyWlLk6GJQsqaUBKTNV-1" source="VaKeFJSu2Lxb5giRbWRH-47" target="VaKeFJSu2Lxb5giRbWRH-50">
          <mxGeometry relative="1" as="geometry" />
        </mxCell>
        <mxCell id="VaKeFJSu2Lxb5giRbWRH-47" value="Start Zombie Wave" style="rounded=1;whiteSpace=wrap;html=1;fontSize=12;glass=0;strokeWidth=1;shadow=0;" vertex="1" parent="WIyWlLk6GJQsqaUBKTNV-1">
          <mxGeometry x="630" y="830" width="120" height="40" as="geometry" />
        </mxCell>
        <mxCell id="VaKeFJSu2Lxb5giRbWRH-48" style="edgeStyle=orthogonalEdgeStyle;rounded=0;orthogonalLoop=1;jettySize=auto;html=1;entryX=0.5;entryY=0;entryDx=0;entryDy=0;" edge="1" parent="WIyWlLk6GJQsqaUBKTNV-1" source="VaKeFJSu2Lxb5giRbWRH-49" target="VaKeFJSu2Lxb5giRbWRH-47">
          <mxGeometry relative="1" as="geometry" />
        </mxCell>
        <mxCell id="VaKeFJSu2Lxb5giRbWRH-49" value="Character Control Plants&amp;nbsp;" style="rounded=1;whiteSpace=wrap;html=1;fontSize=12;glass=0;strokeWidth=1;shadow=0;" vertex="1" parent="WIyWlLk6GJQsqaUBKTNV-1">
          <mxGeometry x="630" y="750" width="120" height="40" as="geometry" />
        </mxCell>
        <mxCell id="VaKeFJSu2Lxb5giRbWRH-55" style="edgeStyle=orthogonalEdgeStyle;rounded=0;orthogonalLoop=1;jettySize=auto;html=1;entryX=0.5;entryY=0;entryDx=0;entryDy=0;" edge="1" parent="WIyWlLk6GJQsqaUBKTNV-1" source="VaKeFJSu2Lxb5giRbWRH-50" target="VaKeFJSu2Lxb5giRbWRH-54">
          <mxGeometry relative="1" as="geometry" />
        </mxCell>
        <mxCell id="VaKeFJSu2Lxb5giRbWRH-50" value="Plants Kill Zombie" style="rounded=1;whiteSpace=wrap;html=1;fontSize=12;glass=0;strokeWidth=1;shadow=0;" vertex="1" parent="WIyWlLk6GJQsqaUBKTNV-1">
          <mxGeometry x="630" y="910" width="120" height="40" as="geometry" />
        </mxCell>
        <mxCell id="VaKeFJSu2Lxb5giRbWRH-52" value="Level Inside&amp;nbsp;" style="text;html=1;align=center;verticalAlign=middle;resizable=0;points=[];autosize=1;strokeColor=none;fillColor=none;" vertex="1" parent="WIyWlLk6GJQsqaUBKTNV-1">
          <mxGeometry x="690" y="720" width="90" height="30" as="geometry" />
        </mxCell>
        <mxCell id="VaKeFJSu2Lxb5giRbWRH-69" style="edgeStyle=orthogonalEdgeStyle;rounded=0;orthogonalLoop=1;jettySize=auto;html=1;entryX=0;entryY=0.5;entryDx=0;entryDy=0;" edge="1" parent="WIyWlLk6GJQsqaUBKTNV-1" source="VaKeFJSu2Lxb5giRbWRH-54" target="VaKeFJSu2Lxb5giRbWRH-66">
          <mxGeometry relative="1" as="geometry" />
        </mxCell>
        <mxCell id="VaKeFJSu2Lxb5giRbWRH-54" value="Level Settlement" style="rounded=1;whiteSpace=wrap;html=1;fontSize=12;glass=0;strokeWidth=1;shadow=0;" vertex="1" parent="WIyWlLk6GJQsqaUBKTNV-1">
          <mxGeometry x="630" y="990" width="120" height="40" as="geometry" />
        </mxCell>
        <mxCell id="VaKeFJSu2Lxb5giRbWRH-63" value="Start Game" style="text;html=1;align=center;verticalAlign=middle;resizable=0;points=[];autosize=1;strokeColor=none;fillColor=none;" vertex="1" parent="WIyWlLk6GJQsqaUBKTNV-1">
          <mxGeometry x="300" y="390" width="80" height="30" as="geometry" />
        </mxCell>
        <mxCell id="VaKeFJSu2Lxb5giRbWRH-68" style="edgeStyle=orthogonalEdgeStyle;rounded=0;orthogonalLoop=1;jettySize=auto;html=1;entryX=0.5;entryY=0;entryDx=0;entryDy=0;" edge="1" parent="WIyWlLk6GJQsqaUBKTNV-1" source="VaKeFJSu2Lxb5giRbWRH-66" target="VaKeFJSu2Lxb5giRbWRH-23">
          <mxGeometry relative="1" as="geometry" />
        </mxCell>
        <mxCell id="VaKeFJSu2Lxb5giRbWRH-66" value="Load Level" style="rounded=1;whiteSpace=wrap;html=1;fontSize=12;glass=0;strokeWidth=1;shadow=0;" vertex="1" parent="WIyWlLk6GJQsqaUBKTNV-1">
          <mxGeometry x="240" y="420" width="120" height="40" as="geometry" />
        </mxCell>
        <mxCell id="VaKeFJSu2Lxb5giRbWRH-73" style="edgeStyle=orthogonalEdgeStyle;rounded=0;orthogonalLoop=1;jettySize=auto;html=1;entryX=0.5;entryY=0;entryDx=0;entryDy=0;" edge="1" parent="WIyWlLk6GJQsqaUBKTNV-1" source="VaKeFJSu2Lxb5giRbWRH-70" target="VaKeFJSu2Lxb5giRbWRH-66">
          <mxGeometry relative="1" as="geometry" />
        </mxCell>
        <mxCell id="VaKeFJSu2Lxb5giRbWRH-70" value="Init PlayerHUD" style="rounded=1;whiteSpace=wrap;html=1;fontSize=12;glass=0;strokeWidth=1;shadow=0;" vertex="1" parent="WIyWlLk6GJQsqaUBKTNV-1">
          <mxGeometry x="40" y="360" width="120" height="40" as="geometry" />
        </mxCell>
      </root>
    </mxGraphModel>
  </diagram>
</mxfile>
